<svg width="249" height="42" viewBox="0 0 249 42" fill="none" xmlns="http://www.w3.org/2000/svg">
<rect width="249" height="42" rx="10" fill="black" fill-opacity="0.866667"/>
<path d="M26.2316 27.4751V28.1951H18.7796V27.4751H20.7056L19.1936 22.7951H14.2076L12.6776 27.4751H14.5136V28.1951H10.5896V27.4751H11.8136L16.2596 13.7951H20.5616L25.0076 27.4751H26.2316ZM18.9596 22.0751L16.6916 15.1271L14.4416 22.0751H18.9596ZM27.8457 28.1951V24.9551H31.2657V28.1951H27.8457ZM40.0787 13.7951V14.5151H38.6387V27.4751H40.0787V28.1951H33.0587V27.4751H34.4987V14.5151H33.0587V13.7951H40.0787ZM46.0088 21.9491L47.3228 20.6351L46.0088 19.3391V15.4691L47.6828 13.7951H54.4148L56.0168 15.3971L55.4588 15.9551L54.0188 14.5151H50.1488V20.2751H57.8168V20.9951H56.0168V26.5211L54.3428 28.1951H47.6828L46.0088 26.5211V21.9491ZM53.9468 27.4751L55.2068 26.2151V20.9951H50.1488V27.4751H53.9468ZM76.8858 15.6491V26.3411L75.0318 28.1951H63.9258V27.4751H65.3658V14.5151H63.9258V13.7951H75.0318L76.8858 15.6491ZM69.5058 14.5151V27.4751H72.7458V14.5151H69.5058ZM80.3605 28.1951L78.8665 26.7011V23.9291L80.3605 22.4351H84.9865V18.1151H83.0965V20.9951H79.3165V18.8891L80.8105 17.3951H87.6325L89.1265 18.8891V27.4751H90.5665V28.1951H86.4805L85.4005 27.0971L84.3025 28.1951H80.3605ZM83.0965 23.1551V27.4751H83.9065L84.9865 26.3951V23.1551H83.0965ZM99.305 26.5211L97.631 28.1951H94.049L92.375 26.5211V15.0551H91.115V14.3351H94.751L96.245 15.8291V18.4751H98.765V19.1951H96.245V27.4751H97.235L98.747 25.9631L99.305 26.5211ZM102.245 28.1951L100.751 26.7011V23.9291L102.245 22.4351H106.871V18.1151H104.981V20.9951H101.201V18.8891L102.695 17.3951H109.517L111.011 18.8891V27.4751H112.451V28.1951H108.365L107.285 27.0971L106.187 28.1951H102.245ZM104.981 23.1551V27.4751H105.791L106.871 26.3951V23.1551H104.981ZM114.994 29.2031L116.506 30.7151H119.386V14.5151H117.946V13.7951H124.786V14.5151H123.526V29.7611L121.852 31.4351H116.11L114.436 29.7611L114.994 29.2031ZM136.374 19.2491V26.3411L134.52 28.1951H127.896L126.042 26.3411V19.2491L127.896 17.3951H134.52L136.374 19.2491ZM130.362 18.1151V27.4751H132.054V18.1151H130.362ZM151.221 27.4751V28.1951H147.315L146.055 26.9171L144.777 28.1951H140.745L139.071 26.5211V18.1151H137.631V17.3951H141.447L143.121 19.0691V27.4751H144.381L145.641 26.2151V17.3951H148.107L149.781 19.0691V27.4751H151.221ZM162.02 18.7091L161.462 19.2671L160.31 18.1151H158.78L157.52 19.3751V27.4751H158.96V28.1951H155.054L153.38 26.5211V18.1151H151.94V17.3951H155.846L157.124 18.6551L158.384 17.3951H160.706L162.02 18.7091ZM176.061 27.4751V28.1951H171.975L170.481 26.7011V18.1151H169.221L167.961 19.3751V27.4751H168.861V28.1951H162.381V27.4751H163.821V18.1151H162.381V17.3951H166.287L167.565 18.6551L168.825 17.3951H172.947L174.621 19.0691V27.4751H176.061ZM178.991 28.1951L177.497 26.7011V23.9291L178.991 22.4351H183.617V18.1151H181.727V20.9951H177.947V18.8891L179.441 17.3951H186.263L187.757 18.8891V27.4751H189.197V28.1951H185.111L184.031 27.0971L182.933 28.1951H178.991ZM181.727 23.1551V27.4751H182.537L183.617 26.3951V23.1551H181.727ZM196.226 27.4751V28.1951H192.5L190.826 26.5211V13.0751H189.566V12.3551H193.292L194.966 14.0291V27.4751H196.226ZM200.216 15.9551L197.48 13.2011L200.234 10.4651L202.97 13.2191L200.216 15.9551ZM203.96 27.4751V28.1951H200.054L198.38 26.5211V18.1151H196.94V17.3951H200.846L202.52 19.0691V27.4751H203.96ZM206.204 28.3751H205.394V24.5051H206.204V25.8551L207.824 27.4751H211.622L205.574 21.0671V18.8891L207.068 17.3951H212.378L213.602 18.6191V17.2151H214.412V21.0851H213.602V19.7351L211.982 18.1151H208.544L214.592 24.5231V26.7011L213.098 28.1951H207.428L206.204 26.9711V28.3751ZM236.635 27.4751V28.1951H232.639L231.145 26.7011V18.1151H229.885L228.625 19.3751V27.4751H229.705V28.1951H224.485V18.1151H223.225L221.965 19.3751V27.4751H223.045V28.1951H216.385V27.4751H217.825V18.1151H216.385V17.3951H220.291L221.569 18.6551L222.829 17.3951H226.951L228.229 18.6551L229.489 17.3951H233.521L235.195 19.0691V27.4751H236.635Z" fill="white"/>
</svg>
