<svg width="249" height="45" viewBox="0 0 249 45" fill="none" xmlns="http://www.w3.org/2000/svg">
<rect width="249" height="45" rx="10" fill="black" fill-opacity="0.866667"/>
<path d="M27.7526 16.274V21.026L25.8986 22.88H20.4986V28.28H21.9386V29H14.9186V28.28H16.3586V15.32H14.9186V14.6H26.0786L27.7526 16.274ZM20.4986 22.16H23.6126V15.32H20.4986V22.16ZM39.1011 19.514L38.5431 20.072L37.3911 18.92H35.8611L34.6011 20.18V28.28H36.0411V29H32.1351L30.4611 27.326V18.92H29.0211V18.2H32.9271L34.2051 19.46L35.4651 18.2H37.7871L39.1011 19.514ZM50.3345 20.054V27.146L48.4805 29H41.8565L40.0025 27.146V20.054L41.8565 18.2H48.4805L50.3345 20.054ZM44.3225 18.92V28.28H46.0145V18.92H44.3225ZM55.3174 16.76L52.5814 14.006L55.3354 11.27L58.0714 14.024L55.3174 16.76ZM55.9474 18.2L57.6214 19.874V31.826L55.9474 33.5H51.6454L50.1514 32.006L50.7094 31.448L52.0414 32.78H53.4814V18.92H52.0414V18.2H55.9474ZM62.0847 29L60.4107 27.326V19.874L62.0847 18.2H68.9967L70.6707 19.874V22.826L68.9967 24.5H64.5507V28.28H68.6907L70.2027 26.768L70.7607 27.326L69.0867 29H62.0847ZM64.5507 18.92V23.78H66.5307V18.92H64.5507ZM78.1436 21.8V18.92H76.2536V28.28H79.6736L81.0956 26.858L81.6536 27.416L80.0696 29H73.7876L72.1136 27.326V19.874L73.7876 18.2H80.4296L81.7436 19.514V21.8H78.1436ZM90.662 27.326L88.988 29H85.406L83.732 27.326V15.86H82.472V15.14H86.108L87.602 16.634V19.28H90.122V20H87.602V28.28H88.592L90.104 26.768L90.662 27.326ZM114.316 15.32V28.28H115.576V29H108.376V28.28H110.176V15.428L106.63 29H102.4L98.4941 15.356V28.28H100.294V29H96.2441V28.28H97.6841V15.32H96.2441V14.6H102.508L106.198 27.488L109.564 14.6H115.576V15.32H114.316ZM118.686 29L117.192 27.506V24.734L118.686 23.24H123.312V18.92H121.422V21.8H117.642V19.694L119.136 18.2H125.958L127.452 19.694V28.28H128.892V29H124.806L123.726 27.902L122.628 29H118.686ZM121.422 23.96V28.28H122.232L123.312 27.2V23.96H121.422ZM143.301 28.28V29H139.215L137.721 27.506V18.92H136.461L135.201 20.18V28.28H136.101V29H129.621V28.28H131.061V18.92H129.621V18.2H133.527L134.805 19.46L136.065 18.2H140.187L141.861 19.874V28.28H143.301ZM146.231 29L144.737 27.506V24.734L146.231 23.24H150.857V18.92H148.967V21.8H145.187V19.694L146.681 18.2H153.503L154.997 19.694V28.28H156.437V29H152.351L151.271 27.902L150.173 29H146.231ZM148.967 23.96V28.28H149.777L150.857 27.2V23.96H148.967ZM168.866 18.2V31.826L167.192 33.5H159.2L157.706 32.006V29.9H161.756V32.78H164.726V27.056L163.862 27.92H159.47L157.796 26.246V19.874L159.47 18.2H163.862L165.14 19.46L166.4 18.2H168.866ZM164.726 25.94V20.18L163.466 18.92H161.846V27.2H163.466L164.726 25.94ZM172.335 29L170.661 27.326V19.874L172.335 18.2H179.247L180.921 19.874V22.826L179.247 24.5H174.801V28.28H178.941L180.453 26.768L181.011 27.326L179.337 29H172.335ZM174.801 18.92V23.78H176.781V18.92H174.801ZM202.434 28.28V29H198.438L196.944 27.506V18.92H195.684L194.424 20.18V28.28H195.504V29H190.284V18.92H189.024L187.764 20.18V28.28H188.844V29H182.184V28.28H183.624V18.92H182.184V18.2H186.09L187.368 19.46L188.628 18.2H192.75L194.028 19.46L195.288 18.2H199.32L200.994 19.874V28.28H202.434ZM205.54 29L203.866 27.326V19.874L205.54 18.2H212.452L214.126 19.874V22.826L212.452 24.5H208.006V28.28H212.146L213.658 26.768L214.216 27.326L212.542 29H205.54ZM208.006 18.92V23.78H209.986V18.92H208.006ZM228.889 28.28V29H224.803L223.309 27.506V18.92H222.049L220.789 20.18V28.28H221.689V29H215.209V28.28H216.649V18.92H215.209V18.2H219.115L220.393 19.46L221.653 18.2H225.775L227.449 19.874V28.28H228.889ZM237.615 27.326L235.941 29H232.359L230.685 27.326V15.86H229.425V15.14H233.061L234.555 16.634V19.28H237.075V20H234.555V28.28H235.545L237.057 26.768L237.615 27.326Z" fill="white"/>
</svg>
