<svg width="520" height="103" viewBox="0 0 520 103" fill="none" xmlns="http://www.w3.org/2000/svg">
<path d="M2.45093 41.5714C16.0921 41.5714 29.7372 35.4344 43.4302 34.1896C64.5318 32.2713 87.1094 33.7165 108.004 36.3282C123.172 38.2242 137.926 41.7045 152.708 45.5727C165.551 48.9334 180.995 53.487 191.825 61.5091C200.101 67.6397 216.04 77.8093 216.04 90.0015C216.04 103.702 196.171 105.323 196.171 92.4851C196.171 83.353 198.559 85.7774 205.485 81.9298C209.498 79.7002 212.939 76.0921 217.351 74.548C223.805 72.2889 230.533 71.3274 237.151 69.8568C249.407 67.133 262.302 68.2084 274.474 65.1655C287.253 61.9706 300.08 59.8328 312.624 55.5071C319.1 53.274 326.539 53.1264 332.769 50.264C339.649 47.1029 344.321 42.1146 350.775 38.4669C356.475 35.2451 361.502 29.8057 366.366 25.428C373.679 18.8465 382.406 13.3131 390.857 8.31882C403.046 1.11661 417.063 1.83387 430.802 1.83387C445.356 1.83387 459.244 10.2523 471.85 16.7354C476.339 19.0441 516.496 50.3812 517.797 47.7804" stroke="black" stroke-width="3" stroke-linecap="round"/>
<path d="M262.893 78.4573C272.659 78.4573 282.719 79.1424 292.43 78.1093C301.605 77.1332 310.244 74.6864 319.105 72.1942C328.652 69.5091 337.422 67.0364 345.743 61.4079C351.444 57.5511 357.087 52.4944 363.101 49.2298C376.243 42.0958 385.117 26.2654 401.375 26.2654" stroke="black" stroke-width="3" stroke-linecap="round"/>
<path d="M144 27C157.103 27 172.004 30.8138 182.996 38.1418" stroke="black" stroke-width="3" stroke-linecap="round"/>
<path d="M183 13.0034C183.021 12.8542 189.331 17.701 190.116 18.5546C192.158 20.7744 193.39 23.5484 194.457 26.291C195.9 30.0017 197.882 34.5101 197.882 38.5155" stroke="black" stroke-width="3" stroke-linecap="round"/>
<path d="M208.462 49.6488C208.462 47.9483 210.831 44.9591 211.651 43.2707C213.281 39.9165 214.112 36.2935 215.638 32.9359C216.399 31.2601 218.533 23.0595 216.435 22.0106" stroke="black" stroke-width="3" stroke-linecap="round"/>
<path d="M220.896 54.1388C228.451 54.1388 233.336 50.095 238.653 45.2467C242.589 41.6584 244.658 36.6246 248.293 32.99" stroke="black" stroke-width="3" stroke-linecap="round"/>
<path d="M245.409 54.6194C255.407 54.6194 264.486 54.2258 274.142 51.2549C277.945 50.0845 282.195 49.0042 285.677 47.0358C286.752 46.4282 288.269 46.2043 288.668 45.0063" stroke="black" stroke-width="3" stroke-linecap="round"/>
</svg>
