<?xml version="1.0" standalone="no"?>
<!DOCTYPE svg PUBLIC "-//W3C//DTD SVG 20010904//EN"
 "http://www.w3.org/TR/2001/REC-SVG-20010904/DTD/svg10.dtd">
<svg version="1.0" xmlns="http://www.w3.org/2000/svg"
 width="860.000000pt" height="530.000000pt" viewBox="0 0 860.000000 530.000000"
 preserveAspectRatio="xMidYMid meet">

<g transform="translate(0.000000,530.000000) scale(0.100000,-0.100000)"
fill="#000000" stroke="none">
<path d="M4395 4783 c-73 -15 -125 -64 -125 -118 0 -15 -4 -14 -34 4 -26 16
-53 22 -111 24 -70 2 -78 0 -96 -22 -24 -30 -24 -84 0 -137 21 -45 56 -77 107
-96 29 -10 33 -15 27 -37 -26 -98 25 -194 94 -177 27 7 76 52 105 96 16 25 16
25 46 8 103 -60 232 53 164 143 -10 13 -27 40 -39 60 -17 31 -18 38 -7 54 29
40 1 160 -43 183 -26 13 -65 20 -88 15z m59 -66 c9 -7 20 -31 23 -54 4 -33 1
-47 -16 -69 -27 -35 -27 -48 4 -68 14 -9 25 -23 25 -30 0 -7 9 -25 20 -39 11
-14 20 -32 20 -40 0 -23 -28 -47 -55 -47 -33 0 -92 36 -98 60 -6 24 -42 27
-51 4 -3 -9 -6 -28 -6 -43 0 -43 -65 -121 -89 -107 -21 13 -22 74 0 115 29 56
23 75 -26 82 -84 11 -135 60 -135 130 l0 31 62 -4 c60 -4 63 -6 108 -56 71
-80 87 -71 92 53 3 58 4 61 38 77 42 21 60 22 84 5z"/>
<path d="M6592 4707 c-16 -19 -42 -125 -42 -172 0 -71 27 -104 130 -160 92
-50 128 -83 115 -105 -4 -7 -33 -28 -64 -47 -193 -122 -195 -214 -6 -298 121
-53 123 -75 19 -174 -75 -72 -89 -102 -50 -109 12 -3 46 24 102 80 78 78 84
87 84 125 0 53 -30 83 -141 137 -45 23 -87 49 -93 58 -15 25 17 64 104 123 40
28 82 62 93 77 39 52 -3 115 -115 173 -104 54 -118 69 -118 125 0 25 7 70 16
99 8 29 13 59 10 67 -7 18 -30 18 -44 1z"/>
<path d="M2370 4361 c-5 -11 -10 -34 -10 -51 0 -17 -4 -39 -9 -48 -17 -33 -23
-116 -9 -135 22 -30 48 -12 48 33 0 21 5 51 11 67 18 48 28 127 17 141 -15 18
-36 15 -48 -7z"/>
<path d="M2017 4243 c-14 -13 -6 -26 52 -86 32 -34 66 -79 74 -99 26 -61 65
-47 52 18 -4 24 -26 56 -72 104 -60 64 -89 81 -106 63z"/>
<path d="M1900 3929 c-134 -10 -156 -14 -163 -32 -14 -36 5 -39 174 -27 168
11 199 20 186 54 -7 18 -15 18 -197 5z"/>
<path d="M4405 3750 l-69 -70 74 -75 75 -75 72 72 73 73 -72 72 c-40 40 -75
73 -78 73 -3 0 -37 -32 -75 -70z"/>
<path d="M3552 3703 c2 -13 14 -19 41 -21 l37 -3 0 -352 0 -351 42 -43 42 -43
98 0 c91 0 98 1 98 20 0 16 -7 20 -30 20 l-30 0 0 213 0 213 34 33 c27 26 40
32 67 29 l34 -3 3 -220 2 -220 42 -42 42 -43 103 0 c96 0 103 1 103 20 0 16
-7 20 -35 20 l-35 0 0 218 0 218 -48 47 -48 47 -109 0 c-98 0 -111 -2 -132
-22 l-23 -21 0 108 0 109 -42 43 -42 43 -109 0 c-98 0 -108 -2 -105 -17z"/>
<path d="M2414 3639 c-3 -6 -57 -167 -119 -358 l-112 -346 -31 -3 c-24 -2 -32
-8 -32 -23 0 -18 8 -19 106 -19 95 0 105 2 102 18 -2 13 -15 18 -51 20 -40 3
-47 6 -42 21 3 9 20 62 38 116 l34 100 130 3 131 3 36 -108 c20 -60 36 -114
36 -121 0 -8 -16 -12 -45 -12 -38 0 -45 -3 -45 -20 0 -19 7 -20 195 -20 188 0
195 1 195 20 0 16 -7 20 -32 20 l-33 0 -115 358 -116 357 -111 3 c-76 2 -114
-1 -119 -9z m86 -257 c29 -89 50 -165 48 -168 -3 -2 -55 -3 -115 -2 l-109 3
55 173 c30 95 58 169 62 165 4 -5 31 -81 59 -171z"/>
<path d="M3440 3433 l0 -37 -33 32 -33 32 -141 0 -140 0 -42 -45 c-37 -40 -41
-50 -41 -96 0 -56 -16 -36 220 -284 l95 -100 -94 -3 -94 -3 -44 43 c-33 33
-43 49 -43 75 0 29 -3 33 -25 33 l-25 0 0 -100 0 -100 25 0 c21 0 25 5 25 32
l0 32 28 -27 c28 -27 29 -27 183 -27 l155 0 37 38 c34 35 37 42 37 97 l0 60
-156 165 -155 165 82 3 82 3 49 -48 c38 -37 48 -54 48 -80 0 -26 4 -33 20 -33
19 0 20 7 20 105 0 98 -1 105 -20 105 -16 0 -20 -7 -20 -37z"/>
<path d="M4310 3440 c0 -16 7 -20 35 -20 l35 0 0 -220 0 -220 41 -45 42 -45
108 0 c102 0 109 1 109 20 0 16 -7 20 -35 20 l-35 0 0 218 0 218 -48 47 -48
47 -102 0 c-95 0 -102 -1 -102 -20z"/>
<path d="M4727 3453 c-19 -19 -5 -33 33 -33 l40 0 0 -244 0 -245 -37 -3 c-27
-2 -39 -8 -41 -20 -3 -17 11 -18 177 -18 174 0 181 1 181 20 0 16 -7 20 -30
20 l-30 0 0 208 0 208 38 37 c25 24 47 37 65 37 l27 0 0 -265 0 -265 140 0
c133 0 140 1 140 20 0 16 -7 20 -30 20 l-30 0 0 208 0 208 38 37 c25 24 47 37
65 37 l27 0 0 -228 0 -228 38 -37 38 -37 107 0 c100 0 107 1 107 20 0 16 -7
20 -35 20 l-35 0 0 218 0 218 -48 47 -48 47 -104 0 c-103 0 -104 0 -137 -32
l-33 -32 -33 32 -33 32 -109 0 -109 0 -33 -32 -33 -32 -33 32 c-33 32 -34 32
-133 32 -56 0 -104 -3 -107 -7z"/>
<path d="M5942 3417 c-38 -39 -42 -47 -42 -95 l0 -52 100 0 100 0 0 75 0 75
50 0 50 0 0 -115 0 -115 -123 0 -123 0 -37 -38 c-36 -37 -37 -40 -37 -113 0
-74 1 -76 38 -112 l38 -37 104 0 c99 0 105 1 132 27 l28 27 28 -27 c27 -26 32
-27 141 -27 102 0 112 2 109 18 -2 12 -14 18 -41 20 l-37 3 0 223 0 222 -43
42 -43 42 -175 0 -175 0 -42 -43z m258 -349 c0 -75 -2 -84 -27 -110 -15 -15
-37 -28 -50 -28 -23 0 -23 2 -23 110 l0 110 50 0 50 0 0 -82z"/>
<path d="M863 2954 c-3 -9 -2 -22 3 -29 56 -75 63 -103 64 -232 l0 -92 -55
-76 c-86 -121 -72 -161 36 -101 102 56 170 69 286 56 68 -7 114 -18 151 -36
49 -24 55 -25 69 -11 15 14 10 22 -50 78 -141 131 -160 226 -65 325 34 36 34
67 1 72 -33 5 -99 -34 -123 -73 -14 -22 -29 -35 -43 -35 -33 0 -151 76 -195
125 -41 47 -68 57 -79 29z m287 -210 l35 5 1 -44 c1 -29 13 -64 36 -107 l35
-63 -104 3 c-84 3 -114 0 -164 -17 -37 -12 -57 -16 -52 -8 103 134 106 140 96
156 -6 9 -18 15 -26 15 -12 -1 -16 12 -19 61 l-3 62 65 -34 c51 -27 73 -34
100 -29z"/>
<path d="M7415 2921 c-58 -26 -92 -71 -106 -139 -12 -56 -12 -57 -48 -58 -50
0 -109 -31 -127 -66 -13 -25 -13 -35 -3 -59 12 -30 73 -72 120 -84 26 -6 27
-8 22 -64 -5 -56 -4 -59 31 -94 31 -31 44 -37 79 -37 38 0 47 5 93 55 46 49
55 54 82 49 38 -8 113 26 142 63 29 38 26 90 -10 146 -32 51 -67 71 -117 65
-27 -3 -30 -1 -22 13 14 26 11 89 -6 147 -25 85 -53 98 -130 63z m75 -77 c22
-65 17 -97 -24 -153 -35 -47 -37 -54 -24 -68 14 -13 21 -13 71 1 83 24 104 21
127 -16 30 -50 26 -84 -12 -109 -22 -13 -42 -18 -58 -14 -76 18 -79 18 -89 -6
-5 -13 -28 -43 -50 -67 -40 -42 -41 -42 -70 -28 -15 8 -31 24 -34 36 -7 28 14
92 36 110 12 10 16 22 11 33 -5 15 -14 16 -55 11 -38 -5 -57 -2 -93 16 -51 24
-54 30 -28 52 27 24 56 29 103 19 58 -13 69 -3 62 57 -7 61 15 115 59 142 45
28 55 25 68 -16z"/>
<path d="M2397 2454 c-19 -20 -5 -34 33 -34 l40 0 0 -339 0 -340 -37 -3 c-27
-2 -39 -8 -41 -20 -3 -17 11 -18 183 -18 172 0 186 1 183 18 -2 11 -14 18 -36
20 l-32 3 0 340 0 339 36 0 c28 0 35 3 32 18 -3 15 -21 17 -179 20 -96 1 -178
-1 -182 -4z"/>
<path d="M2900 2441 c0 -16 8 -20 39 -23 l40 -3 -130 -160 c-71 -88 -129 -168
-129 -178 0 -10 39 -99 87 -197 l86 -180 154 0 c146 0 153 1 153 20 0 16 -7
20 -35 20 l-36 0 -86 180 -86 179 -87 3 -87 3 127 155 126 155 47 3 c39 3 47
6 47 23 0 18 -8 19 -115 19 -107 0 -115 -1 -115 -19z"/>
<path d="M3307 2232 c-35 -35 -37 -42 -37 -100 l0 -63 98 3 97 3 3 78 3 78 47
-3 47 -3 3 -112 3 -113 -123 0 -122 0 -43 -42 c-42 -41 -43 -43 -43 -110 0
-64 2 -70 36 -108 l36 -40 111 0 c107 0 112 1 139 27 l28 27 28 -27 c27 -26
33 -27 135 -27 100 0 107 1 107 20 0 16 -7 20 -35 20 l-35 0 0 223 0 223 -43
42 -43 42 -180 0 -180 0 -37 -38z m263 -354 c0 -75 -2 -84 -27 -110 -15 -15
-37 -28 -50 -28 -23 0 -23 2 -23 110 l0 110 50 0 50 0 0 -82z"/>
<path d="M3910 2250 c0 -16 7 -20 35 -20 l35 0 0 -245 0 -245 -35 0 c-28 0
-35 -4 -35 -20 0 -19 7 -20 175 -20 168 0 175 1 175 20 0 16 -7 20 -30 20
l-30 0 0 208 0 208 38 37 c25 24 47 37 65 37 l27 0 0 -265 0 -265 140 0 c133
0 140 1 140 20 0 15 -7 20 -25 20 l-25 0 0 213 0 213 33 32 c21 20 43 32 60
32 l27 0 0 -225 0 -225 36 -40 36 -40 115 0 c104 0 114 2 111 18 -2 12 -14 18
-41 20 l-37 3 0 217 0 218 -48 47 -48 47 -100 0 -100 0 -34 -35 -34 -35 -36
35 -36 35 -105 0 -105 0 -34 -35 -34 -35 -36 35 -36 35 -102 0 c-95 0 -102 -1
-102 -20z"/>
<path d="M5020 2251 c0 -16 8 -20 38 -23 l37 -3 3 -220 2 -220 42 -42 42 -43
103 0 c96 0 103 1 103 20 0 16 -7 20 -35 20 l-35 0 0 213 0 213 33 32 c45 44
89 44 134 0 31 -30 34 -31 50 -15 16 16 15 19 -17 52 -31 32 -38 35 -95 35
-57 0 -64 -3 -95 -35 l-34 -35 -36 35 -36 35 -102 0 c-94 0 -102 -1 -102 -19z"/>
<path d="M5672 2227 c-41 -42 -43 -46 -40 -98 l3 -54 97 -3 97 -3 3 78 3 78
48 3 47 3 0 -115 0 -116 -123 0 -123 0 -37 -38 c-36 -37 -37 -40 -37 -113 0
-74 1 -76 38 -112 l38 -37 110 0 c105 0 112 1 134 25 l24 25 26 -25 c25 -24
32 -25 139 -25 102 0 112 2 109 18 -2 12 -14 18 -41 20 l-37 3 0 223 0 222
-43 42 -43 42 -175 0 -175 0 -42 -43z m258 -349 c0 -75 -2 -84 -27 -110 -15
-15 -37 -28 -50 -28 -23 0 -23 2 -23 110 l0 110 50 0 50 0 0 -82z"/>
<path d="M6518 1474 c-14 -14 -8 -43 10 -48 9 -2 90 -8 180 -12 l162 -7 0 25
c0 22 -6 26 -37 31 -69 11 -308 19 -315 11z"/>
<path d="M6397 1354 c-16 -16 -5 -72 23 -119 46 -79 92 -128 113 -120 26 11
21 33 -24 91 -22 29 -48 74 -58 101 -16 45 -37 63 -54 47z"/>
<path d="M1859 1280 c-42 -22 -79 -64 -122 -140 -39 -67 -60 -73 -105 -29 -30
30 -37 43 -44 94 -4 23 -37 33 -49 13 -24 -37 14 -127 70 -167 69 -50 131 -28
178 61 41 77 95 128 138 128 39 0 49 -14 80 -109 35 -106 117 -165 201 -142
56 15 80 44 111 141 16 46 36 88 45 94 12 7 30 4 68 -14 48 -22 51 -27 66 -79
29 -108 58 -145 89 -114 14 13 14 18 1 38 -8 12 -20 42 -26 66 -24 88 -39 110
-104 140 -75 36 -96 36 -135 4 -29 -25 -50 -70 -71 -152 -6 -23 -20 -49 -33
-58 -61 -43 -129 5 -167 120 -40 119 -101 153 -191 105z"/>
<path d="M6203 1292 c-6 -4 -14 -23 -18 -42 -4 -19 -16 -54 -26 -77 -11 -23
-19 -50 -19 -60 0 -11 -5 -24 -10 -29 -15 -15 -1 -44 20 -44 22 0 37 17 45 55
4 17 14 46 23 65 22 51 28 126 10 133 -8 3 -19 2 -25 -1z"/>
<path d="M4708 983 c-33 -36 -48 -66 -48 -95 0 -13 -7 -34 -16 -47 -16 -23
-20 -23 -107 -17 -56 4 -109 15 -139 28 -53 23 -78 19 -78 -12 0 -15 12 -26
43 -39 52 -22 91 -70 142 -170 l37 -74 -12 -81 c-16 -105 -12 -140 16 -144 16
-2 28 8 48 42 37 64 115 140 172 169 72 36 179 67 235 67 45 0 49 2 49 24 0
21 -7 25 -71 40 -77 17 -177 71 -202 109 -24 37 -30 84 -16 138 9 35 10 55 3
67 -16 25 -28 24 -56 -5z m17 -219 c17 -29 46 -58 82 -80 30 -20 53 -37 51
-39 -2 -1 -38 -17 -81 -35 -54 -22 -94 -48 -132 -84 -60 -57 -60 -56 -41 51
14 80 9 98 -25 90 -21 -5 -28 2 -56 49 l-32 54 62 -6 c64 -6 137 12 137 35 0
19 8 12 35 -35z"/>
</g>
</svg>
