<svg width="24" height="24" viewBox="0 0 24 24" fill="none" xmlns="http://www.w3.org/2000/svg">
<path d="M8.88354 9.67964C7.79441 5.7915 9.74115 1.23942 14.4251 1.26371C15.2475 1.26797 15.8244 4.89044 16.0256 5.60845C16.499 7.29871 15.3178 8.72857 14.3592 10.0631C13.3533 11.4633 12.6353 11.3895 15.0405 10.7158C16.6502 10.2649 18.9999 9.41408 20.2886 10.9712C22.9502 14.1874 22.5188 16.6376 18.1517 18.1267C17.0982 18.4859 15.1902 17.0616 15.1891 17.2694C15.1784 19.3255 13.2873 19.2249 12.6607 20.7001C11.2829 23.9442 6.0526 20.8591 7.47352 17.5134C7.9048 16.498 7.62948 14.8623 9.10734 14.4484C9.72373 14.2757 7.88771 14.8959 7.24853 14.9307C6.05046 14.996 4.45014 14.1957 3.43112 13.6226C-1.11482 11.0662 6.02142 7.85176 7.4243 9.3982" stroke="black" stroke-width="2" stroke-linecap="round"/>
</svg>
