<svg width="23" height="22" viewBox="0 0 23 22" fill="none" xmlns="http://www.w3.org/2000/svg">
<path d="M5.12988 14.1101C5.12988 9.95765 6.01994 4.44011 2.80371 1.22389C1.59749 0.0176648 4.93335 4.04256 6.45912 4.80545C8.04106 5.59642 10.9291 8.15601 12.773 7.13161C14.1684 6.35637 14.4928 4.66599 15.7638 3.99313C17.7687 2.9317 18.6939 2.61382 16.7976 4.51006C13.9663 7.34142 14.0192 10.5352 16.0592 13.7409C17.1036 15.3822 17.8833 16.534 19.4192 17.7286C20.0348 18.2074 22.4119 20.0932 20.933 18.9101C18.7632 17.1742 13.1774 16.7686 10.4468 16.7686C8.04153 16.7686 3.48786 18.5216 1.65909 19.944C-0.998035 22.0106 5.10401 14.1446 7.12374 11.4516" stroke="black" stroke-width="2" stroke-linecap="round"/>
</svg>
