<svg width="511" height="89" viewBox="0 0 511 89" fill="none" xmlns="http://www.w3.org/2000/svg">
<path d="M377.734 23.3305C382.648 23.3305 387.711 22.9249 392.534 24.0101C400.119 25.7167 405.131 32.7605 411.375 36.9227C421.674 43.789 431.098 52.0609 442.335 57.3488C453.432 62.5709 465.678 66.4137 477.788 68.3359C483.327 69.2152 488.611 70.2237 494.249 70.2237C495.721 70.2237 498.715 70.9192 497.345 68.8644" stroke="black" stroke-width="3" stroke-linecap="round"/>
<path d="M196.278 45.0781C196.278 32.0244 205.791 30.5803 214.627 24.6897" stroke="black" stroke-width="3" stroke-linecap="round"/>
<path d="M38.0498 52.8561C42.4787 52.8561 47.0794 50.6663 51.2161 49.2184C54.2522 48.1558 58.3108 48.7861 61.5049 48.4312C72.2417 47.2382 83.9025 47.4586 94.5157 49.6799C100.569 50.9468 106.313 52.5132 112.216 54.3221C116.451 55.6199 119.922 58.8977 123.943 60.6745C127.724 62.3451 130.953 65.2552 134.802 66.5383" stroke="black" stroke-width="3" stroke-linecap="round"/>
<path d="M197.869 86.9336C200.333 86.9336 202.535 87.0504 204.857 86.1006C207.753 84.916 210.529 82.8493 213.188 81.1948C214.941 80.1037 216.481 78.8154 217.862 77.3535C218.517 76.6603 219.234 75.2708 220.361 75.2708C220.955 75.2708 221.912 75.9204 222.629 76.0113C226.582 76.5124 230.559 76.9375 234.523 77.3535C239.329 77.8578 244.184 77.84 249.009 78.094C253.397 78.3249 258.102 78.5296 262.431 77.6774C271.49 75.894 280.43 72.4972 287.839 66.9402" stroke="black" stroke-width="3" stroke-linecap="round"/>
<path d="M2 54.4948C2.35288 51.3189 9.13887 48.0934 11.5146 46.6416C17.0506 43.2584 22.0096 40.6704 28.165 38.4862C49.009 31.09 71.9085 28.8168 93.5964 34.1065C116.509 39.695 136.001 52.1038 157.253 61.6308C173.67 68.9898 195.957 68.6864 212.83 63.3298C220.056 61.0358 229.955 52.0947 225.932 43.2435C222.986 36.7622 218.369 36.3802 212.679 39.3924C207.972 41.8844 208.364 47.817 209.319 52.1162C209.806 54.3071 210.887 57.1951 212.679 58.0439C215.403 59.3338 219.21 62.9982 222.194 63.3298C227.638 63.9347 233.204 64.0094 238.844 64.0094C242.907 64.0094 247.367 61.9428 250.209 59.1011C255.951 53.3596 264.841 52.1402 271.503 47.6987C277.279 43.8486 281.458 38.3383 286.795 34.0688C293.009 29.0973 300.203 24.4191 307.145 20.5143C322.009 12.1537 339.179 5.59237 355.926 2.31582C359.034 1.70781 362.586 2.1648 365.743 2.1648C370.29 2.1648 375.069 1.7301 379.562 2.5046C383.775 3.23109 388.119 3.75119 392.248 4.88324C396.089 5.93661 399.564 8.0904 403.348 8.99866C411.71 11.0056 417.797 17.765 424.038 23.0817C430.545 28.6241 438.269 31.8155 445.106 36.6739C448.449 39.0488 451.81 41.3865 455.149 43.7721C459.299 46.7364 463.399 48.2389 467.911 50.4172C475.754 54.2033 486.234 53.1356 494.718 53.1356C499 53.1356 502.448 50.8189 506.271 49.209C508.125 48.4283 510.047 47.623 511.029 45.6599" stroke="black" stroke-width="3" stroke-linecap="round"/>
</svg>
