<svg width="757" height="434" viewBox="0 0 757 434" fill="none" xmlns="http://www.w3.org/2000/svg">
<path d="M464.95 124.514C464.22 117.355 459.351 110.348 458.268 102.917C455.39 83.1675 462.147 70.3442 479.664 59.4431C500.54 46.4523 531.144 43.1976 555.226 48.296C564.884 50.3406 571.36 56.7775 578.968 62.4388C589.193 70.0481 599.206 77.9596 609.463 85.4994C640.846 108.568 683.967 118.052 718.22 95.6711C726.366 90.3489 742.645 77.7168 735.92 65.8526C731.739 58.4766 723.222 58.0497 715.732 58.0497C708.544 58.0497 706.776 61.8087 706.776 68.1517C706.776 82.7197 707.083 92.2054 714.453 105.425C721.386 117.862 732.316 126.9 740.683 138.309C749.414 150.215 753.807 162.625 755.113 177.184C756.511 192.778 754.243 212.3 741.109 223.027C731.373 230.978 720.647 237.143 709.335 242.395C699.344 247.033 686.082 245.666 676.068 242.395" stroke="black" stroke-width="3" stroke-linecap="round"/>
<path d="M438.926 305.617C438.926 340.909 479.22 362.005 508.785 370.949C546.746 382.432 587.69 372.433 625.668 383.557C641.157 388.094 673.466 404.333 662.044 425C658.414 431.568 649.786 431.576 643.271 431.576C636.553 431.576 633.033 432.84 630.838 426.388C625.24 409.927 624.856 396.327 633.916 380.541C638.179 373.113 647.992 367.887 650.534 359.789C652.485 353.575 656.893 345.149 655.827 338.433C654.34 329.059 652.351 316.473 644.441 310.443C641.448 308.161 637.239 305.194 637.239 301.273" stroke="black" stroke-width="3" stroke-linecap="round"/>
<path d="M289.361 304.531C270.405 304.531 253.771 318.527 243.075 332.763C229.727 350.529 226.615 376.329 209.531 391.399C205.492 394.961 182.945 404.813 178.571 397.311C176.159 393.174 172.017 390.133 169.954 385.728C166.176 377.66 163.835 369.265 160.599 360.995C153.091 341.811 135.869 323.914 114.067 324.076C87.5605 324.273 52.1113 349.964 29.1285 326.187C18.5714 315.265 19.7798 293.983 25.0662 280.883C29.6297 269.575 36.2895 260.17 47.2857 254.581C52.1753 252.096 60.5302 249.942 65.5659 252.41" stroke="black" stroke-width="3" stroke-linecap="round"/>
<path d="M66.5824 189.397C66.5824 179.372 67.1263 169.418 65.4124 159.563C63.4573 148.322 51.8125 138.464 44.3536 130.9C32.2586 118.635 17.5289 107.823 9.32068 92.2273C0.661042 75.774 -1.48281 51.1507 9.32068 35.4856C26.4414 10.6606 53.1155 -5.64662 83.4814 5.65233C98.4848 11.235 106.978 18.7882 114.81 32.8857C122.568 46.8508 127.608 62.0637 139.118 73.5734C146.538 80.9929 154.953 83.7799 165.442 82.8679C175.209 82.0185 181.068 74.0099 189.425 70.0636C209.757 60.4625 224.779 78.3786 237.392 90.9924C244.492 98.0923 257.384 91.0953 263.781 97.492C268.63 102.341 268.836 116.204 274.83 119.201" stroke="black" stroke-width="3" stroke-linecap="round"/>
</svg>
