<svg width="766" height="442" viewBox="0 0 766 442" fill="none" xmlns="http://www.w3.org/2000/svg">
<path d="M473.323 116.514C472.593 109.355 467.724 102.348 466.641 94.9167C463.763 75.1675 470.52 62.3442 488.037 51.4431C508.913 38.4523 539.517 35.1976 563.599 40.296C573.257 42.3406 579.733 48.7775 587.341 54.4388C597.566 62.0481 607.579 69.9596 617.836 77.4994C649.219 100.568 692.34 110.052 726.593 87.6711C734.739 82.3489 751.018 69.7168 744.293 57.8526C740.112 50.4766 731.595 50.0497 724.105 50.0497C716.917 50.0497 715.149 53.8087 715.149 60.1517C715.149 74.7197 715.456 84.2054 722.826 97.4248C729.759 109.862 740.689 118.9 749.056 130.309C757.787 142.215 762.18 154.625 763.486 169.184C764.884 184.778 762.616 204.3 749.482 215.027C739.746 222.978 729.02 229.143 717.708 234.395C707.717 239.033 694.455 237.666 684.441 234.395" stroke="black" stroke-width="3" stroke-linecap="round"/>
<path d="M449.133 307.271C447.93 342.543 487.482 365 516.725 374.946C554.273 387.716 595.534 379.117 633.111 391.529C648.436 396.591 680.173 413.922 668.053 434.188C664.202 440.628 655.578 440.342 649.067 440.12C642.353 439.891 638.792 441.035 636.818 434.511C631.784 417.869 631.864 404.264 641.456 388.795C645.97 381.517 655.955 376.629 658.772 368.622C660.933 362.478 665.626 354.207 664.79 347.459C663.622 338.04 662.064 325.393 654.364 319.097C651.45 316.715 647.345 313.606 647.479 309.687" stroke="black" stroke-width="3" stroke-linecap="round"/>
<path d="M291.361 307.531C272.405 307.531 255.771 321.527 245.075 335.763C231.727 353.529 228.615 379.329 211.531 394.399C207.492 397.961 184.945 407.813 180.571 400.311C178.159 396.174 174.017 393.133 171.954 388.728C168.176 380.66 165.835 372.265 162.599 363.995C155.091 344.811 137.869 326.914 116.067 327.076C89.5605 327.273 54.1113 352.964 31.1285 329.187C20.5714 318.265 21.7798 296.983 27.0662 283.883C31.6297 272.575 38.2895 263.17 49.2857 257.581C54.1753 255.096 62.5302 252.942 67.5659 255.41" stroke="black" stroke-width="3" stroke-linecap="round"/>
<path d="M71.7337 194.731C71.4008 184.712 71.6138 174.745 69.5736 164.953C67.2463 153.782 55.2805 144.316 47.5746 137.004C35.0789 125.147 19.9982 114.831 11.2766 99.5164C2.07534 83.3597 -0.885058 58.8212 9.39224 42.806C25.6791 17.4261 51.7969 0.24205 82.5213 10.5263C97.7019 15.6077 106.441 22.8746 114.737 36.7043C122.954 50.404 128.497 65.4411 140.383 76.5622C148.045 83.7313 156.548 86.2373 167.001 84.9774C176.735 83.8041 182.325 75.6053 190.546 71.3837C210.547 61.1127 226.156 78.5201 239.182 90.708C246.513 97.5682 259.166 90.1469 265.771 96.3277C270.778 101.013 271.445 114.861 277.536 117.658" stroke="black" stroke-width="3" stroke-linecap="round"/>
</svg>
