<svg width="249" height="45" viewBox="0 0 249 45" fill="none" xmlns="http://www.w3.org/2000/svg">
<rect width="249" height="45" rx="10" fill="white"/>
<path d="M26.7846 16.649V21.401L24.9306 23.255H19.5306V28.655H20.9706V29.375H13.9506V28.655H15.3906V15.695H13.9506V14.975H25.1106L26.7846 16.649ZM19.5306 22.535H22.6446V15.695H19.5306V22.535ZM38.1332 19.889L37.5752 20.447L36.4232 19.295H34.8932L33.6332 20.555V28.655H35.0732V29.375H31.1672L29.4932 27.701V19.295H28.0532V18.575H31.9592L33.2372 19.835L34.4972 18.575H36.8192L38.1332 19.889ZM49.3666 20.429V27.521L47.5126 29.375H40.8886L39.0346 27.521V20.429L40.8886 18.575H47.5126L49.3666 20.429ZM43.3546 19.295V28.655H45.0466V19.295H43.3546ZM54.3495 17.135L51.6135 14.381L54.3675 11.645L57.1035 14.399L54.3495 17.135ZM54.9795 18.575L56.6535 20.249V32.201L54.9795 33.875H50.6775L49.1835 32.381L49.7415 31.823L51.0735 33.155H52.5135V19.295H51.0735V18.575H54.9795ZM61.1168 29.375L59.4428 27.701V20.249L61.1168 18.575H68.0288L69.7028 20.249V23.201L68.0288 24.875H63.5828V28.655H67.7228L69.2348 27.143L69.7928 27.701L68.1188 29.375H61.1168ZM63.5828 19.295V24.155H65.5628V19.295H63.5828ZM77.1756 22.175V19.295H75.2856V28.655H78.7056L80.1276 27.233L80.6856 27.791L79.1016 29.375H72.8196L71.1456 27.701V20.249L72.8196 18.575H79.4616L80.7756 19.889V22.175H77.1756ZM89.694 27.701L88.02 29.375H84.438L82.764 27.701V16.235H81.504V15.515H85.14L86.634 17.009V19.655H89.154V20.375H86.634V28.655H87.624L89.136 27.143L89.694 27.701ZM113.348 15.695V28.655H114.608V29.375H107.408V28.655H109.208V15.803L105.662 29.375H101.432L97.5262 15.731V28.655H99.3262V29.375H95.2762V28.655H96.7162V15.695H95.2762V14.975H101.54L105.23 27.863L108.596 14.975H114.608V15.695H113.348ZM117.718 29.375L116.224 27.881V25.109L117.718 23.615H122.344V19.295H120.454V22.175H116.674V20.069L118.168 18.575H124.99L126.484 20.069V28.655H127.924V29.375H123.838L122.758 28.277L121.66 29.375H117.718ZM120.454 24.335V28.655H121.264L122.344 27.575V24.335H120.454ZM142.333 28.655V29.375H138.247L136.753 27.881V19.295H135.493L134.233 20.555V28.655H135.133V29.375H128.653V28.655H130.093V19.295H128.653V18.575H132.559L133.837 19.835L135.097 18.575H139.219L140.893 20.249V28.655H142.333ZM145.263 29.375L143.769 27.881V25.109L145.263 23.615H149.889V19.295H147.999V22.175H144.219V20.069L145.713 18.575H152.535L154.029 20.069V28.655H155.469V29.375H151.383L150.303 28.277L149.205 29.375H145.263ZM147.999 24.335V28.655H148.809L149.889 27.575V24.335H147.999ZM167.898 18.575V32.201L166.224 33.875H158.232L156.738 32.381V30.275H160.788V33.155H163.758V27.431L162.894 28.295H158.502L156.828 26.621V20.249L158.502 18.575H162.894L164.172 19.835L165.432 18.575H167.898ZM163.758 26.315V20.555L162.498 19.295H160.878V27.575H162.498L163.758 26.315ZM171.367 29.375L169.693 27.701V20.249L171.367 18.575H178.279L179.953 20.249V23.201L178.279 24.875H173.833V28.655H177.973L179.485 27.143L180.043 27.701L178.369 29.375H171.367ZM173.833 19.295V24.155H175.813V19.295H173.833ZM201.466 28.655V29.375H197.47L195.976 27.881V19.295H194.716L193.456 20.555V28.655H194.536V29.375H189.316V19.295H188.056L186.796 20.555V28.655H187.876V29.375H181.216V28.655H182.656V19.295H181.216V18.575H185.122L186.4 19.835L187.66 18.575H191.782L193.06 19.835L194.32 18.575H198.352L200.026 20.249V28.655H201.466ZM204.572 29.375L202.898 27.701V20.249L204.572 18.575H211.484L213.158 20.249V23.201L211.484 24.875H207.038V28.655H211.178L212.69 27.143L213.248 27.701L211.574 29.375H204.572ZM207.038 19.295V24.155H209.018V19.295H207.038ZM227.921 28.655V29.375H223.835L222.341 27.881V19.295H221.081L219.821 20.555V28.655H220.721V29.375H214.241V28.655H215.681V19.295H214.241V18.575H218.147L219.425 19.835L220.685 18.575H224.807L226.481 20.249V28.655H227.921ZM236.647 27.701L234.973 29.375H231.391L229.717 27.701V16.235H228.457V15.515H232.093L233.587 17.009V19.655H236.107V20.375H233.587V28.655H234.577L236.089 27.143L236.647 27.701Z" fill="black" fill-opacity="0.866667"/>
</svg>
