<svg width="208" height="45" viewBox="0 0 208 45" fill="none" xmlns="http://www.w3.org/2000/svg">
<rect width="208" height="45" rx="10" fill="white"/>
<path d="M28.7985 17.274V22.026L26.9445 23.88H21.5445V29.28H22.9845V30H15.9645V29.28H17.4045V16.32H15.9645V15.6H27.1245L28.7985 17.274ZM21.5445 23.16H24.6585V16.32H21.5445V23.16ZM32.281 30L30.607 28.326V20.874L32.281 19.2H39.193L40.867 20.874V23.826L39.193 25.5H34.747V29.28H38.887L40.399 27.768L40.957 28.326L39.283 30H32.281ZM34.747 19.92V24.78H36.727V19.92H34.747ZM52.0298 20.514L51.4718 21.072L50.3198 19.92H48.7898L47.5298 21.18V29.28H48.9698V30H45.0638L43.3898 28.326V19.92H41.9498V19.2H45.8558L47.1338 20.46L48.3938 19.2H50.7158L52.0298 20.514ZM53.9213 30.18H53.1113V26.31H53.9213V27.66L55.5413 29.28H59.3393L53.2913 22.872V20.694L54.7853 19.2H60.0953L61.3193 20.424V19.02H62.1293V22.89H61.3193V21.54L59.6993 19.92H56.2613L62.3093 26.328V28.506L60.8153 30H55.1453L53.9213 28.776V30.18ZM74.7945 21.054V28.146L72.9405 30H66.3165L64.4625 28.146V21.054L66.3165 19.2H72.9405L74.7945 21.054ZM68.7825 19.92V29.28H70.4745V19.92H68.7825ZM89.7314 29.28V30H85.6454L84.1514 28.506V19.92H82.8914L81.6314 21.18V29.28H82.5314V30H76.0514V29.28H77.4914V19.92H76.0514V19.2H79.9574L81.2354 20.46L82.4954 19.2H86.6174L88.2914 20.874V29.28H89.7314ZM92.6619 30L91.1679 28.506V25.734L92.6619 24.24H97.2879V19.92H95.3979V22.8H91.6179V20.694L93.1119 19.2H99.9339L101.428 20.694V29.28H102.868V30H98.7819L97.7019 28.902L96.6039 30H92.6619ZM95.3979 24.96V29.28H96.2079L97.2879 28.2V24.96H95.3979ZM109.896 29.28V30H106.17L104.496 28.326V14.88H103.236V14.16H106.962L108.636 15.834V29.28H109.896ZM128.66 17.274V22.026L126.806 23.88H121.406V29.28H122.846V30H115.826V29.28H117.266V16.32H115.826V15.6H126.986L128.66 17.274ZM121.406 23.16H124.52V16.32H121.406V23.16ZM140.008 20.514L139.45 21.072L138.298 19.92H136.768L135.508 21.18V29.28H136.948V30H133.042L131.368 28.326V19.92H129.928V19.2H133.834L135.112 20.46L136.372 19.2H138.694L140.008 20.514ZM151.242 21.054V28.146L149.388 30H142.764L140.91 28.146V21.054L142.764 19.2H149.388L151.242 21.054ZM145.23 19.92V29.28H146.922V19.92H145.23ZM156.225 17.76L153.489 15.006L156.243 12.27L158.979 15.024L156.225 17.76ZM156.855 19.2L158.529 20.874V32.826L156.855 34.5H152.553L151.059 33.006L151.617 32.448L152.949 33.78H154.389V19.92H152.949V19.2H156.855ZM162.992 30L161.318 28.326V20.874L162.992 19.2H169.904L171.578 20.874V23.826L169.904 25.5H165.458V29.28H169.598L171.11 27.768L171.668 28.326L169.994 30H162.992ZM165.458 19.92V24.78H167.438V19.92H165.458ZM179.051 22.8V19.92H177.161V29.28H180.581L182.003 27.858L182.561 28.416L180.977 30H174.695L173.021 28.326V20.874L174.695 19.2H181.337L182.651 20.514V22.8H179.051ZM191.569 28.326L189.895 30H186.313L184.639 28.326V16.86H183.379V16.14H187.015L188.509 17.634V20.28H191.029V21H188.509V29.28H189.499L191.011 27.768L191.569 28.326Z" fill="black" fill-opacity="0.866667"/>
</svg>
