<svg width="224" height="45" viewBox="0 0 224 45" fill="none" xmlns="http://www.w3.org/2000/svg">
<rect width="224" height="45" rx="10" fill="white"/>
<path d="M37.3845 16.32H36.1965L32.5245 30H28.2225L26.5125 23.664L24.8205 30H20.5185L16.8465 16.32H15.6585V15.6H30.1845V16.32H28.8525L32.0925 28.398L35.3325 16.32H33.3705V15.6H37.3845V16.32ZM26.0985 22.08L24.5505 16.32H21.1485L24.3885 28.398L26.0985 22.08ZM40.1306 30L38.4566 28.326V20.874L40.1306 19.2H47.0426L48.7166 20.874V23.826L47.0426 25.5H42.5966V29.28H46.7366L48.2486 27.768L48.8066 28.326L47.1326 30H40.1306ZM42.5966 19.92V24.78H44.5766V19.92H42.5966ZM62.0575 20.874V28.326L60.3835 30H55.8835L54.6235 28.722L53.3455 30H50.8795V14.88H49.4395V14.16H53.3455L55.0195 15.834V20.172L55.9915 19.2H60.3835L62.0575 20.874ZM56.2795 29.28H57.8275V19.92H56.3875L55.0195 21.288V28.02L56.2795 29.28ZM80.9528 17.454V28.146L79.0988 30H67.9928V29.28H69.4328V16.32H67.9928V15.6H79.0988L80.9528 17.454ZM73.5728 16.32V29.28H76.8128V16.32H73.5728ZM84.4275 30L82.7535 28.326V20.874L84.4275 19.2H91.3395L93.0135 20.874V23.826L91.3395 25.5H86.8935V29.28H91.0335L92.5455 27.768L93.1035 28.326L91.4295 30H84.4275ZM86.8935 19.92V24.78H88.8735V19.92H86.8935ZM107.218 19.92H105.994L102.718 30H98.5963L95.3203 19.92H94.0963V19.2H100.738V19.92H99.4423L102.286 28.668L105.13 19.92H103.834V19.2H107.218V19.92ZM110.144 30L108.47 28.326V20.874L110.144 19.2H117.056L118.73 20.874V23.826L117.056 25.5H112.61V29.28H116.75L118.262 27.768L118.82 28.326L117.146 30H110.144ZM112.61 19.92V24.78H114.59V19.92H112.61ZM126.113 29.28V30H122.387L120.713 28.326V14.88H119.453V14.16H123.179L124.853 15.834V29.28H126.113ZM137.699 21.054V28.146L135.845 30H129.221L127.367 28.146V21.054L129.221 19.2H135.845L137.699 21.054ZM131.687 19.92V29.28H133.379V19.92H131.687ZM140.396 19.92H138.956V19.2H142.862L144.14 20.46L145.4 19.2H149.612L151.286 20.874V28.326L149.612 30H145.4L144.536 29.136V35.22H145.796V35.94H142.07L140.396 34.266V19.92ZM144.536 21.18V28.02L145.796 29.28H147.056V19.92H145.796L144.536 21.18ZM172.974 29.28V30H168.978L167.484 28.506V19.92H166.224L164.964 21.18V29.28H166.044V30H160.824V19.92H159.564L158.304 21.18V29.28H159.384V30H152.724V29.28H154.164V19.92H152.724V19.2H156.63L157.908 20.46L159.168 19.2H163.29L164.568 20.46L165.828 19.2H169.86L171.534 20.874V29.28H172.974ZM176.08 30L174.406 28.326V20.874L176.08 19.2H182.992L184.666 20.874V23.826L182.992 25.5H178.546V29.28H182.686L184.198 27.768L184.756 28.326L183.082 30H176.08ZM178.546 19.92V24.78H180.526V19.92H178.546ZM199.429 29.28V30H195.343L193.849 28.506V19.92H192.589L191.329 21.18V29.28H192.229V30H185.749V29.28H187.189V19.92H185.749V19.2H189.655L190.933 20.46L192.193 19.2H196.315L197.989 20.874V29.28H199.429ZM208.155 28.326L206.481 30H202.899L201.225 28.326V16.86H199.965V16.14H203.601L205.095 17.634V20.28H207.615V21H205.095V29.28H206.085L207.597 27.768L208.155 28.326Z" fill="black" fill-opacity="0.866667"/>
</svg>
